<svg width="15" height="16" viewBox="0 0 15 16" fill="none" xmlns="http://www.w3.org/2000/svg">
<path d="M14.8334 8.00002C14.8334 3.94993 11.5501 0.666687 7.50002 0.666687C3.44993 0.666687 0.166687 3.94993 0.166687 8.00002C0.166687 11.6603 2.84838 14.6941 6.35419 15.2442V10.1198H4.49221V8.00002H6.35419V6.3844C6.35419 4.54648 7.44901 3.53127 9.12408 3.53127C9.92643 3.53127 10.7656 3.6745 10.7656 3.6745V5.47919H9.84092C8.92995 5.47919 8.64585 6.04446 8.64585 6.62441V8.00002H10.6797L10.3546 10.1198H8.64585V15.2442C12.1517 14.6941 14.8334 11.6603 14.8334 8.00002Z" fill="#2E90FA"/>
<path d="M10.3546 10.1198L10.6797 8H8.64583V6.62439C8.64583 6.04444 8.92993 5.47917 9.8409 5.47917H10.7656V3.67448C10.7656 3.67448 9.92641 3.53125 9.12406 3.53125C7.44899 3.53125 6.35417 4.54646 6.35417 6.38438V8H4.49219V10.1198H6.35417V15.2442C7.11343 15.363 7.88657 15.363 8.64583 15.2442V10.1198H10.3546Z" fill="white"/>
</svg>
