<svg width="16" height="16" viewBox="0 0 16 16" fill="none" xmlns="http://www.w3.org/2000/svg">
<path d="M15.3334 8.16299C15.3334 7.56004 15.2835 7.12004 15.1754 6.66376H8.14972V9.38518H12.2737C12.1905 10.0615 11.7416 11.08 10.7438 11.7644L10.7298 11.8555L12.9512 13.542L13.1051 13.557C14.5186 12.2778 15.3334 10.3955 15.3334 8.16299" fill="#2E90FA"/>
<path d="M8.14955 15.3334C10.1699 15.3334 11.8661 14.6815 13.105 13.5571L10.7436 11.7644C10.1118 12.1963 9.26366 12.4978 8.14955 12.4978C6.17073 12.4978 4.49122 11.2185 3.89253 9.45038L3.80477 9.45768L1.49493 11.2095L1.46472 11.2918C2.69525 13.6874 5.22284 15.3334 8.14955 15.3334Z" fill="#34A853"/>
<path d="M3.89267 9.45033C3.7347 8.99404 3.64327 8.50512 3.64327 7.99996C3.64327 7.49475 3.7347 7.00588 3.88436 6.54959L3.88017 6.45241L1.54138 4.67242L1.46486 4.70809C0.957697 5.70218 0.666687 6.81849 0.666687 7.99996C0.666687 9.18143 0.957697 10.2977 1.46486 11.2918L3.89267 9.45033" fill="#FBBC05"/>
<path d="M8.14959 3.5022C9.55472 3.5022 10.5026 4.097 11.043 4.59407L13.1549 2.57334C11.8579 1.39187 10.17 0.666687 8.14959 0.666687C5.22287 0.666687 2.69525 2.31259 1.46472 4.7081L3.88423 6.54959C4.49124 4.78146 6.17076 3.5022 8.14959 3.5022" fill="#EB4335"/>
</svg>
